<svg width="428" height="100" fill="none" xmlns="http://www.w3.org/2000/svg"><path d="M159.463 75.882c9.61 0 18.691-4.938 22.13-14.548l-9.522-1.587c-2.028 4.056-6.524 6.877-11.991 6.877-8.199 0-13.93-5.995-13.93-14.547s5.731-14.547 13.93-14.547c5.29 0 9.698 2.733 11.638 6.7l9.522-1.587c-3.35-9.434-11.991-14.37-21.777-14.37-14.018 0-23.893 9.962-23.893 23.804 0 13.842 9.875 23.805 23.893 23.805zm51.071 0c14.371 0 24.51-9.875 24.51-23.805s-10.139-23.805-24.51-23.805c-14.371 0-24.51 9.875-24.51 23.805s10.139 23.805 24.51 23.805zm0-9.258c-8.287 0-13.93-5.907-13.93-14.547s5.643-14.547 13.93-14.547c8.288 0 13.931 5.907 13.931 14.547s-5.643 14.547-13.931 14.547zM253.998 75V48.11c0-6.26 3.791-10.757 9.081-10.757 5.29 0 8.905 4.497 8.905 10.756V75h10.139V48.11c0-6.26 3.791-10.757 9.081-10.757 5.29 0 8.905 4.497 8.905 10.756V75h10.139V47.14c0-11.021-6.789-18.868-16.399-18.868-7.142 0-11.991 4.144-14.018 8.288-2.293-5.114-7.406-8.288-13.578-8.288-6.612 0-10.756 3.615-12.96 7.406l-1.852-6.524h-7.582V75h10.139zm94.772.882c13.137 0 22.394-9.963 22.394-23.805s-9.257-23.805-22.394-23.805c-8.023 0-13.754 4.056-16.928 7.847V12.843h-10.139V75h7.582l2.116-7.406c3.174 3.88 8.993 8.288 17.369 8.288zm-2.469-9.081c-8.552 0-14.459-6.084-14.459-14.724s5.907-14.724 14.459-14.724c8.464 0 14.283 6.084 14.283 14.724s-5.819 14.724-14.283 14.724zm55.546 9.081c14.371 0 24.51-9.875 24.51-23.805s-10.139-23.805-24.51-23.805c-14.371 0-24.51 9.875-24.51 23.805s10.139 23.805 24.51 23.805zm0-9.258c-8.288 0-13.93-5.907-13.93-14.547s5.642-14.547 13.93-14.547 13.93 5.907 13.93 14.547-5.642 14.547-13.93 14.547z" fill="#000"/><path d="M0 48C0 25.373 0 14.059 7.03 7.03 14.058 0 25.372 0 48 0h4c22.627 0 33.941 0 40.97 7.03C100 14.058 100 25.372 100 48v4c0 22.627 0 33.941-7.03 40.97C85.942 100 74.628 100 52 100h-4c-22.627 0-33.941 0-40.97-7.03C0 85.942 0 74.628 0 52v-4z" fill="#07F"/><path d="M53.208 72.042c-22.791 0-35.791-15.625-36.333-41.625h11.417C28.667 49.5 37.083 57.583 43.75 59.25V30.417H54.5v16.458c6.584-.708 13.5-8.208 15.833-16.458h10.75c-1.792 10.166-9.292 17.666-14.625 20.75 5.333 2.5 13.876 9.041 17.126 20.875H71.75C69.208 64.125 62.875 58 54.5 57.167v14.875h-1.292z" fill="#fff"/></svg>